<svg xmlns="http://www.w3.org/2000/svg" width="44" height="44" viewBox="0 0 44 44" preserveAspectRatio="xMinYMid" aria-hidden="true" focusable="false"><rect width="44" height="44" fill="#c49a6c"/><path d="M12.23,10.33h9.32a27.37,27.37,0,0,1,4.13.23,6.17,6.17,0,0,1,2.44,1,5.82,5.82,0,0,1,1.79,2,5.25,5.25,0,0,1,.72,2.73,5.58,5.58,0,0,1-3.28,5.06,6.19,6.19,0,0,1,3.28,2.11,5.65,5.65,0,0,1,1.14,3.52A6.89,6.89,0,0,1,31,30a6.17,6.17,0,0,1-2,2.4,6.69,6.69,0,0,1-3.16,1.11c-.78.08-2.68.13-5.68.16H12.23V10.33Zm4.71,3.89v5.39H20c1.83,0,3,0,3.42-.08a3.09,3.09,0,0,0,1.9-.83A2.49,2.49,0,0,0,26,16.87a2.57,2.57,0,0,0-.59-1.75,2.64,2.64,0,0,0-1.78-.82c-.47-.06-1.81-.08-4-.08Zm0,9.28v6.24H21.3a20.36,20.36,0,0,0,3.23-.15,3,3,0,0,0,1.71-.93,2.85,2.85,0,0,0,.66-2,3,3,0,0,0-.51-1.78,2.86,2.86,0,0,0-1.47-1.07,16.18,16.18,0,0,0-4.18-.33Z" fill="#231f20"/><path d="M35.91,36.58l.9-.12a2,2,0,0,0,.53,1.1,1.28,1.28,0,0,0,.9.33,1.43,1.43,0,0,0,1.07-.44,1.46,1.46,0,0,0,.43-1.08A1.37,1.37,0,0,0,38.31,35a2.38,2.38,0,0,0-.63.1l.1-.79h.15a1.85,1.85,0,0,0,1-.3,1,1,0,0,0,.45-.92,1.07,1.07,0,0,0-.33-.81,1.17,1.17,0,0,0-.86-.33,1.21,1.21,0,0,0-.87.33,1.7,1.7,0,0,0-.45,1l-.9-.16a2.31,2.31,0,0,1,.75-1.4,2.16,2.16,0,0,1,1.45-.49,2.37,2.37,0,0,1,1.1.25,1.87,1.87,0,0,1,.77.7,1.79,1.79,0,0,1,.27.94,1.56,1.56,0,0,1-.26.87,1.77,1.77,0,0,1-.75.61,1.73,1.73,0,0,1,1,.62,1.94,1.94,0,0,1,.35,1.18A2.15,2.15,0,0,1,40,38a2.49,2.49,0,0,1-1.77.66,2.28,2.28,0,0,1-1.59-.57A2.22,2.22,0,0,1,35.91,36.58Z" fill="#231f20"/></svg>
