<svg xmlns="http://www.w3.org/2000/svg" width="44" height="44" viewBox="0 0 44 44" preserveAspectRatio="xMinYMid" aria-hidden="true" focusable="false"><rect width="44" height="44" fill="#c49a6c"/><path d="M27.6,25.09l4.56,1.45a10.26,10.26,0,0,1-3.49,5.67,10,10,0,0,1-6.2,1.86,10,10,0,0,1-7.64-3.18c-2-2.12-3-5-3-8.68q0-5.84,3-9a10.3,10.3,0,0,1,7.91-3.23,9.72,9.72,0,0,1,7,2.53,9.27,9.27,0,0,1,2.39,4.3l-4.66,1.12A4.82,4.82,0,0,0,22.52,14a5.32,5.32,0,0,0-4.21,1.86c-1.08,1.24-1.62,3.26-1.62,6q0,4.42,1.59,6.3A5.19,5.19,0,0,0,22.42,30a4.68,4.68,0,0,0,3.23-1.2A7,7,0,0,0,27.6,25.09Z" fill="#231f20"/><path d="M36,36.58l.89-.12a2,2,0,0,0,.53,1.1,1.3,1.3,0,0,0,.9.33,1.43,1.43,0,0,0,1.07-.44,1.46,1.46,0,0,0,.43-1.08A1.37,1.37,0,0,0,38.35,35a2.45,2.45,0,0,0-.64.1l.1-.79H38a1.85,1.85,0,0,0,1-.3,1,1,0,0,0,.46-.92,1.08,1.08,0,0,0-.34-.81,1.17,1.17,0,0,0-.86-.33,1.21,1.21,0,0,0-.87.33,1.7,1.7,0,0,0-.45,1L36,33.07a2.3,2.3,0,0,1,.74-1.4,2.16,2.16,0,0,1,1.45-.49,2.37,2.37,0,0,1,1.1.25,1.87,1.87,0,0,1,.77.7,1.79,1.79,0,0,1,.27.94,1.56,1.56,0,0,1-.26.87,1.77,1.77,0,0,1-.75.61,1.73,1.73,0,0,1,1,.62,1.88,1.88,0,0,1,.36,1.18A2.16,2.16,0,0,1,40,38a2.46,2.46,0,0,1-1.76.66,2.31,2.31,0,0,1-1.6-.57A2.21,2.21,0,0,1,36,36.58Z" fill="#231f20"/></svg>
