<svg xmlns="http://www.w3.org/2000/svg" width="44" height="44" viewBox="0 0 44 44" preserveAspectRatio="xMinYMid" aria-hidden="true" focusable="false"><rect width="44" height="44" fill="#c49a6c"/><path d="M12.22,10.33h8.61a16.67,16.67,0,0,1,4.44.45,7.79,7.79,0,0,1,3.52,2.15A10.3,10.3,0,0,1,31,16.71a17.48,17.48,0,0,1,.76,5.51,15.29,15.29,0,0,1-.72,5,10.14,10.14,0,0,1-2.5,4.12,8.11,8.11,0,0,1-3.31,1.86,14.19,14.19,0,0,1-4.17.5H12.22Zm4.71,3.95V29.74h3.52a12.73,12.73,0,0,0,2.85-.23,4.34,4.34,0,0,0,1.9-1,5,5,0,0,0,1.23-2.25A15.16,15.16,0,0,0,26.91,22a13.91,13.91,0,0,0-.48-4.16A5.34,5.34,0,0,0,25.1,15.6a4.55,4.55,0,0,0-2.19-1.1,21.15,21.15,0,0,0-3.86-.22Z" fill="#231f20"/><path d="M38.63,37.77v.86H33.81a1.48,1.48,0,0,1,.11-.62,3.24,3.24,0,0,1,.59-1,8.61,8.61,0,0,1,1.17-1.1,10.13,10.13,0,0,0,1.61-1.55,1.9,1.9,0,0,0,.41-1.08,1.19,1.19,0,0,0-.38-.9,1.37,1.37,0,0,0-1-.36,1.41,1.41,0,0,0-1,.39,1.5,1.5,0,0,0-.39,1.07L34,33.42a2.25,2.25,0,0,1,.71-1.57,2.44,2.44,0,0,1,1.66-.54,2.3,2.3,0,0,1,1.66.58,1.91,1.91,0,0,1,.62,1.44,2.18,2.18,0,0,1-.18.86,3.31,3.31,0,0,1-.6.89,14.88,14.88,0,0,1-1.38,1.29c-.54.45-.88.76-1,.92a2.58,2.58,0,0,0-.37.48Z" fill="#231f20"/></svg>
