<svg xmlns="http://www.w3.org/2000/svg" width="44" height="44" viewBox="0 0 44 44"><rect width="44" height="44" fill="#c49a6c"/><path d="M22.76,25.05V21.12H32.91v9.29a12.82,12.82,0,0,1-4.29,2.53A15.75,15.75,0,0,1,22.93,34a12.69,12.69,0,0,1-6.38-1.54,9.72,9.72,0,0,1-4.09-4.39,14.27,14.27,0,0,1-1.37-6.22,13.43,13.43,0,0,1,1.53-6.48,10.36,10.36,0,0,1,4.47-4.34A12,12,0,0,1,22.68,9.9a11.13,11.13,0,0,1,6.79,1.82,8.28,8.28,0,0,1,3.14,5l-4.68.87a5,5,0,0,0-1.85-2.71,5.64,5.64,0,0,0-3.4-1,6.39,6.39,0,0,0-4.91,2c-1.22,1.31-1.83,3.24-1.83,5.81q0,4.15,1.85,6.23A6.14,6.14,0,0,0,22.63,30a8,8,0,0,0,3-.58A10.31,10.31,0,0,0,28.15,28v-3Z" fill="#231f20"/><path d="M39.41,37.77v.86H34.59a1.47,1.47,0,0,1,.1-.62,3.24,3.24,0,0,1,.59-1,9.29,9.29,0,0,1,1.17-1.1,10.13,10.13,0,0,0,1.61-1.55,1.85,1.85,0,0,0,.42-1.08,1.23,1.23,0,0,0-.38-.9,1.41,1.41,0,0,0-1-.36,1.39,1.39,0,0,0-1,.39,1.44,1.44,0,0,0-.39,1.07l-.93-.09a2.26,2.26,0,0,1,.72-1.57,2.41,2.41,0,0,1,1.65-.54,2.33,2.33,0,0,1,1.67.58,1.94,1.94,0,0,1,.61,1.44,2.18,2.18,0,0,1-.18.86,3.31,3.31,0,0,1-.6.89,12.63,12.63,0,0,1-1.38,1.29c-.53.45-.88.76-1,.92a3.19,3.19,0,0,0-.38.48Z" fill="#231f20"/></svg>