<svg xmlns="http://www.w3.org/2000/svg" width="44" height="44" viewBox="0 0 44 44"><rect width="44" height="44" fill="#c49a6c"/><path d="M24.77,10.09h4.69V24.87a15.41,15.41,0,0,1-.5,4.45,6.32,6.32,0,0,1-2.49,3.27,8.18,8.18,0,0,1-4.74,1.24,7,7,0,0,1-5.32-1.94,7.92,7.92,0,0,1-1.87-5.67L19,25.71a6.13,6.13,0,0,0,.59,2.83,2.52,2.52,0,0,0,2.32,1.26,2.58,2.58,0,0,0,2.23-.9,7.13,7.13,0,0,0,.65-3.73V10.09Z" fill="#231f20"/><path d="M35.21,34.55a1.65,1.65,0,0,1-.82-.58,1.51,1.51,0,0,1-.27-.91,1.79,1.79,0,0,1,.57-1.34,2.4,2.4,0,0,1,3.06,0,1.8,1.8,0,0,1,.59,1.35,1.46,1.46,0,0,1-.27.88,1.73,1.73,0,0,1-.81.58,1.93,1.93,0,0,1,1,.71,1.88,1.88,0,0,1,.36,1.16A2.12,2.12,0,0,1,38,38a2.42,2.42,0,0,1-1.74.63A2.38,2.38,0,0,1,34.49,38a2.12,2.12,0,0,1-.66-1.59,1.91,1.91,0,0,1,.36-1.19A1.83,1.83,0,0,1,35.21,34.55Zm-.46,1.85a1.59,1.59,0,0,0,.18.74,1.27,1.27,0,0,0,.54.56,1.58,1.58,0,0,0,.77.2,1.43,1.43,0,0,0,1.06-.42,1.39,1.39,0,0,0,.42-1,1.46,1.46,0,0,0-.43-1.07,1.49,1.49,0,0,0-1.08-.42,1.42,1.42,0,0,0-1.46,1.46ZM35,33a1.15,1.15,0,0,0,.34.85,1.17,1.17,0,0,0,.86.33,1.15,1.15,0,0,0,.85-.33,1.06,1.06,0,0,0,.33-.8,1.09,1.09,0,0,0-.34-.82,1.12,1.12,0,0,0-.84-.34,1.18,1.18,0,0,0-.86.33A1.08,1.08,0,0,0,35,33Z" fill="#231f20"/></svg>