<svg xmlns="http://www.w3.org/2000/svg" width="44" height="44" viewBox="0 0 44 44"><rect width="44" height="44" fill="#c49a6c"/><path d="M11.48,33.67V10.33h4.71V20.69l9.52-10.36H32l-8.78,9.09,9.26,14.25h-6.1L20,22.72l-3.82,3.9v7.05Z" fill="#231f20"/><path d="M34,36.6l.94-.08a1.64,1.64,0,0,0,.49,1,1.32,1.32,0,0,0,.92.35,1.44,1.44,0,0,0,1.09-.49,1.85,1.85,0,0,0,.45-1.3,1.66,1.66,0,0,0-.43-1.21,1.54,1.54,0,0,0-1.13-.44,1.56,1.56,0,0,0-.78.2,1.5,1.5,0,0,0-.55.51l-.84-.11.71-3.75h3.62v.86H35.57l-.39,2a2.35,2.35,0,0,1,1.38-.46,2.18,2.18,0,0,1,1.61.66,2.31,2.31,0,0,1,.66,1.7,2.65,2.65,0,0,1-.58,1.72,2.57,2.57,0,0,1-3.54.32A2.14,2.14,0,0,1,34,36.6Z" fill="#231f20"/></svg>