<svg xmlns="http://www.w3.org/2000/svg" width="44" height="44" viewBox="0 0 44 44"><rect width="44" height="44" fill="#c49a6c"/><path d="M10.73,33.67V10.33h7.05L22,26.25,26.2,10.33h7.07V33.67H28.89V15.3L24.26,33.67H19.72L15.11,15.3V33.67Z" fill="#231f20"/><path d="M34.63,36.58l.9-.12a2,2,0,0,0,.52,1.1,1.32,1.32,0,0,0,.9.33A1.41,1.41,0,0,0,38,37.45a1.47,1.47,0,0,0,.44-1.08,1.39,1.39,0,0,0-.41-1,1.36,1.36,0,0,0-1-.4,2.38,2.38,0,0,0-.63.1l.1-.79h.14a1.83,1.83,0,0,0,1-.3,1,1,0,0,0,.46-.92,1.09,1.09,0,0,0-.33-.81,1.19,1.19,0,0,0-.87-.33,1.24,1.24,0,0,0-.87.33,1.63,1.63,0,0,0-.44,1l-.9-.16a2.31,2.31,0,0,1,.75-1.4,2.13,2.13,0,0,1,1.44-.49,2.44,2.44,0,0,1,1.11.25,1.85,1.85,0,0,1,.76.7,1.79,1.79,0,0,1,.27.94,1.55,1.55,0,0,1-.25.87,1.75,1.75,0,0,1-.76.61,1.7,1.7,0,0,1,1,.62,1.88,1.88,0,0,1,.36,1.18,2.13,2.13,0,0,1-.7,1.62,2.45,2.45,0,0,1-1.76.66,2.32,2.32,0,0,1-1.6-.57A2.21,2.21,0,0,1,34.63,36.58Z" fill="#231f20"/></svg>