<svg xmlns="http://www.w3.org/2000/svg" width="44" height="44" viewBox="0 0 44 44"><rect width="44" height="44" fill="#c49a6c"/><path d="M10.68,22.14a14.84,14.84,0,0,1,1.07-6A10.85,10.85,0,0,1,13.92,13a9,9,0,0,1,3-2.1,12.71,12.71,0,0,1,5-.93,11,11,0,0,1,8.25,3.2c2.06,2.14,3.1,5.1,3.1,8.9s-1,6.72-3.08,8.84A10.84,10.84,0,0,1,22,34.06a11,11,0,0,1-8.28-3.17C11.71,28.77,10.68,25.86,10.68,22.14ZM15.54,22q0,4,1.83,6A6,6,0,0,0,22,30a5.92,5.92,0,0,0,4.62-2c1.2-1.35,1.81-3.38,1.81-6.09s-.59-4.67-1.76-6A5.94,5.94,0,0,0,22,14a6,6,0,0,0-4.7,2Q15.53,18,15.54,22Z" fill="#231f20"/><path d="M38.63,38.64h-.89V32.93a4.8,4.8,0,0,1-.85.61A5.71,5.71,0,0,1,36,34v-.86a5.5,5.5,0,0,0,1.31-.86,3.53,3.53,0,0,0,.8-1h.57Z" fill="#231f20"/></svg>