<svg xmlns="http://www.w3.org/2000/svg" width="44" height="44" viewBox="0 0 44 44"><rect width="44" height="44" fill="#c49a6c"/><path d="M13.06,33.67V10.33h7.56a27.74,27.74,0,0,1,5.61.35A6.14,6.14,0,0,1,29.58,13a7.19,7.19,0,0,1,1.36,4.54,7.66,7.66,0,0,1-.78,3.62,6.36,6.36,0,0,1-2,2.29,6.86,6.86,0,0,1-2.45,1.11,27,27,0,0,1-4.88.34H17.77v8.8Zm4.71-19.39V20.9h2.58a12.43,12.43,0,0,0,3.73-.36,3.07,3.07,0,0,0,2-3,3.09,3.09,0,0,0-.74-2.11,3.27,3.27,0,0,0-1.9-1,22,22,0,0,0-3.39-.16Z" fill="#231f20"/><path d="M33.86,36.58l.89-.12a2,2,0,0,0,.53,1.1,1.28,1.28,0,0,0,.9.33,1.43,1.43,0,0,0,1.07-.44,1.46,1.46,0,0,0,.43-1.08A1.37,1.37,0,0,0,36.25,35a2.44,2.44,0,0,0-.63.1l.1-.79h.15a1.85,1.85,0,0,0,1-.3,1,1,0,0,0,.46-.92,1.09,1.09,0,0,0-.34-.81,1.17,1.17,0,0,0-.86-.33,1.21,1.21,0,0,0-.87.33,1.7,1.7,0,0,0-.45,1L34,33.07a2.3,2.3,0,0,1,.74-1.4,2.16,2.16,0,0,1,1.45-.49,2.37,2.37,0,0,1,1.1.25,1.87,1.87,0,0,1,.77.7,1.79,1.79,0,0,1,.27.94,1.56,1.56,0,0,1-.26.87,1.77,1.77,0,0,1-.75.61,1.73,1.73,0,0,1,1,.62,1.88,1.88,0,0,1,.36,1.18,2.16,2.16,0,0,1-.7,1.62,2.46,2.46,0,0,1-1.76.66,2.31,2.31,0,0,1-1.6-.57A2.21,2.21,0,0,1,33.86,36.58Z" fill="#231f20"/></svg>