<svg xmlns="http://www.w3.org/2000/svg" width="44" height="44" viewBox="0 0 44 44"><rect width="44" height="44" fill="#c49a6c"/><path d="M26.76,29.74a15.8,15.8,0,0,0,3.78,2L28.8,35a11.09,11.09,0,0,1-2.08-.88c-.15-.07-1.2-.76-3.14-2.07a12.52,12.52,0,0,1-5.08,1q-5.37,0-8.42-3.16C8,27.82,7,24.85,7,21s1-6.77,3.05-8.89A11,11,0,0,1,18.38,9a10.83,10.83,0,0,1,8.22,3.18q3,3.18,3,8.89a15.42,15.42,0,0,1-.85,5.32A11,11,0,0,1,26.76,29.74ZM23,27.08a7.22,7.22,0,0,0,1.36-2.58A12.22,12.22,0,0,0,24.79,21q0-4.05-1.78-6a6,6,0,0,0-4.67-2,6,6,0,0,0-4.67,2q-1.78,2-1.79,6t1.79,6.12a5.81,5.81,0,0,0,4.53,2,5.41,5.41,0,0,0,1.93-.34,14,14,0,0,0-2.92-1.46l1.32-2.69A16.19,16.19,0,0,1,23,27.08Z" fill="#231f20"/><path d="M34.23,38.51h-.9V32.8a4.8,4.8,0,0,1-.85.62,6.16,6.16,0,0,1-.94.46V33a5.28,5.28,0,0,0,1.31-.85,3.38,3.38,0,0,0,.8-1h.58v7.33Z" fill="#231f20"/><path d="M36.52,34.91a6.56,6.56,0,0,1,.27-2.08,2.57,2.57,0,0,1,.79-1.22,2.05,2.05,0,0,1,1.32-.43,2.12,2.12,0,0,1,1,.24,2,2,0,0,1,.74.68,3.76,3.76,0,0,1,.45,1.09,7.16,7.16,0,0,1,.16,1.72A6.83,6.83,0,0,1,41,37a2.57,2.57,0,0,1-.79,1.22,2.2,2.2,0,0,1-3-.32A4.76,4.76,0,0,1,36.52,34.91Zm.92,0a4.55,4.55,0,0,0,.42,2.39,1.2,1.2,0,0,0,2.08,0,4.58,4.58,0,0,0,.42-2.39,4.55,4.55,0,0,0-.42-2.39,1.25,1.25,0,0,0-1-.6,1.14,1.14,0,0,0-1,.53A4.57,4.57,0,0,0,37.44,34.91Z" fill="#231f20"/></svg>