<svg xmlns="http://www.w3.org/2000/svg" width="44" height="44" viewBox="0 0 44 44"><rect x="0.04" y="0.04" width="43.92" height="43.92" transform="translate(-0.04 0.04) rotate(-0.1)" fill="#c49a6c"/><path d="M11.53,33.68l0-23.29,9.9,0a16.91,16.91,0,0,1,5.42.62,5.33,5.33,0,0,1,2.72,2.23,6.65,6.65,0,0,1,1,3.66A6.24,6.24,0,0,1,29,21.21a7.37,7.37,0,0,1-4.61,2.17,10.77,10.77,0,0,1,2.52,1.95,26.73,26.73,0,0,1,2.69,3.77l2.85,4.54H26.84l-3.41-5.06A32.19,32.19,0,0,0,21,25.17a3.72,3.72,0,0,0-1.42-1A7.58,7.58,0,0,0,17.17,24h-1l0,9.72Zm4.68-13.45h3.48a17.88,17.88,0,0,0,4.22-.29,2.53,2.53,0,0,0,1.32-1,2.93,2.93,0,0,0,.47-1.75,2.77,2.77,0,0,0-.63-1.89,2.86,2.86,0,0,0-1.77-.91c-.38-.06-1.53-.08-3.43-.08H16.2Z" fill="#231f20"/><path d="M38.81,38.62h-.89v-5.7a4.8,4.8,0,0,1-.85.62,7.26,7.26,0,0,1-.94.46v-.87a5.28,5.28,0,0,0,1.31-.85,3.38,3.38,0,0,0,.8-1h.57v7.32Z" fill="#231f20"/></svg>