<svg xmlns="http://www.w3.org/2000/svg" width="44" height="44" viewBox="0 0 44 44"><rect width="44" height="44" fill="#c49a6c"/><path d="M12.51,26.07l4.59-.45A5.52,5.52,0,0,0,18.78,29a5.07,5.07,0,0,0,3.41,1.08,5.26,5.26,0,0,0,3.43-1,2.86,2.86,0,0,0,1.16-2.25,2.16,2.16,0,0,0-.49-1.41,3.87,3.87,0,0,0-1.7-1c-.55-.19-1.8-.53-3.77-1a12.63,12.63,0,0,1-5.31-2.31,6,6,0,0,1-2.15-4.69,6,6,0,0,1,1-3.34,6.31,6.31,0,0,1,2.91-2.36,11.7,11.7,0,0,1,4.59-.81q4.39,0,6.62,1.92A6.84,6.84,0,0,1,30.82,17l-4.71.2a4,4,0,0,0-1.3-2.58,4.72,4.72,0,0,0-3-.79,5.39,5.39,0,0,0-3.21.84,1.71,1.71,0,0,0-.75,1.45,1.83,1.83,0,0,0,.7,1.42,12.41,12.41,0,0,0,4.33,1.56A22.81,22.81,0,0,1,28,20.78a6.43,6.43,0,0,1,2.58,2.37,6.92,6.92,0,0,1,.93,3.71,6.83,6.83,0,0,1-1.12,3.76,6.59,6.59,0,0,1-3.15,2.6,13.17,13.17,0,0,1-5.08.86c-2.95,0-5.21-.69-6.79-2A8.91,8.91,0,0,1,12.51,26.07Z" fill="#231f20"/><path d="M39.41,38.64h-.9V32.93a4.46,4.46,0,0,1-.85.61,6.31,6.31,0,0,1-.94.47v-.87A5.57,5.57,0,0,0,38,32.28a3.3,3.3,0,0,0,.79-1h.58Z" fill="#231f20"/></svg>