<svg xmlns="http://www.w3.org/2000/svg" width="44" height="44" viewBox="0 0 44 44"><rect width="44" height="44" fill="#c49a6c"/><path d="M12.7,10.14h4.71V22.77a27.43,27.43,0,0,0,.17,3.9A3.76,3.76,0,0,0,19,29a5,5,0,0,0,3.11.87,4.74,4.74,0,0,0,3-.82,3.21,3.21,0,0,0,1.22-2,26,26,0,0,0,.21-4V10.14H31.3V22.39a31.15,31.15,0,0,1-.38,5.94,6.48,6.48,0,0,1-1.41,2.93,7.14,7.14,0,0,1-2.74,1.9,12,12,0,0,1-4.49.71,12.8,12.8,0,0,1-5.07-.78,7.24,7.24,0,0,1-2.73-2,6.33,6.33,0,0,1-1.32-2.59,28.15,28.15,0,0,1-.46-5.92V10.14Z" fill="#231f20"/><path d="M38.63,38.64h-.89V32.93a4.8,4.8,0,0,1-.85.61A6.82,6.82,0,0,1,36,34v-.87a5.31,5.31,0,0,0,1.31-.86,3.53,3.53,0,0,0,.8-1h.57Z" fill="#231f20"/></svg>