<svg xmlns="http://www.w3.org/2000/svg" width="44" height="44" viewBox="0 0 44 44"><rect width="44" height="44" fill="#c49a6c"/><path d="M11.15,33.67l8-12.18L11.9,10.33h5.51l4.68,7.5,4.58-7.5h5.46L24.87,21.67l8,12H27.16L22,25.6,16.8,33.67Z" fill="#231f20"/><g style="isolation:isolate"><path d="M35.54,33a1.7,1.7,0,0,1-.83-.59,1.56,1.56,0,0,1-.26-.9A1.78,1.78,0,0,1,35,30.12a2.42,2.42,0,0,1,3.06,0,1.79,1.79,0,0,1,.58,1.35,1.55,1.55,0,0,1-.26.89,1.73,1.73,0,0,1-.81.58,1.92,1.92,0,0,1,1,.7A2,2,0,0,1,39,34.82a2.09,2.09,0,0,1-.66,1.57,2.38,2.38,0,0,1-1.74.64,2.42,2.42,0,0,1-1.75-.64,2.14,2.14,0,0,1-.66-1.6,1.93,1.93,0,0,1,.36-1.19A1.79,1.79,0,0,1,35.54,33Zm-.47,1.85a1.65,1.65,0,0,0,.18.74,1.45,1.45,0,0,0,.54.56,1.61,1.61,0,0,0,.78.19,1.46,1.46,0,0,0,1.06-.41,1.55,1.55,0,0,0,0-2.12,1.46,1.46,0,0,0-1.07-.43,1.44,1.44,0,0,0-1.47,1.47Zm.29-3.37a1.09,1.09,0,0,0,.34.84,1.29,1.29,0,0,0,1.71,0,1.16,1.16,0,0,0,0-1.63,1.15,1.15,0,0,0-.85-.34,1.18,1.18,0,0,0-.85.33A1,1,0,0,0,35.36,31.43Z" fill="#231f20"/></g></svg>