<svg xmlns="http://www.w3.org/2000/svg" width="44" height="44" viewBox="0 0 44 44" preserveAspectRatio="xMinYMid" aria-hidden="true" focusable="false"><rect x="0.04" y="0.04" width="43.92" height="43.92" transform="translate(-0.04 0.04) rotate(-0.1)" fill="#c49a6c"/><path d="M33.7,33.63H28.58l-2-5.29H17.23l-1.92,5.3h-5l9-23.31h5ZM25,24.43,21.8,15.79l-3.13,8.65Z" fill="#231f20"/><path d="M38.63,38.6h-.89V32.91a4.8,4.8,0,0,1-.85.61A5.34,5.34,0,0,1,36,34v-.86a5.31,5.31,0,0,0,1.31-.86,3.23,3.23,0,0,0,.8-1h.57Z" fill="#231f20"/></svg>
